# xmcd
#
# Track frame offsets:
#	150
#	14428
#	27208
#	40590
#	53358
#	66329
#	78557
#	91452
#	105023
#	118112
#	134010
#	146961
#	160223
#	172816
#	185626
#	199670
#	213733
#	226369
#	240124
#	254219
#	267950
#	282409
#	295878
#	309778
#	323820
#	337902
#
# Disc length: 4672 seconds
# Revision: 2
# Processed by: cddbd v1.5.2PL0 Copyright (c) Steve Scherf et al.
# Submitted via: dBpowerAMP V12.0
#
DISCID=75123e1a
DTITLE=Sonny Boy Williamson - The Original Sonny Boy Williamson - The Later Years, Disc A
DYEAR=2001
DGENRE=Blues
TTITLE0=Honey Bee Blues
TTITLE1=I Been Dealing With The Devil
TTITLE2=War Time Blues
TTITLE3=Train Fare Blues
TTITLE4=Decoration Blues No. 2
TTITLE5=New Early In The Morning
TTITLE6=Welfare Store Blues
TTITLE7=My Little Machine
TTITLE8=Jivin' The Blues
TTITLE9=Hobo Blues
TTITLE10=It Seems Like A Dream
TTITLE11=Army Man Blues
TTITLE12=38 Pistol Blues
TTITLE13=Worried Blues
TTITLE14=Biscuit Baking Woman
TTITLE15=Insurance Man Blues
TTITLE16=Up North Blues (There's A Reason)
TTITLE17=Western Union Man
TTITLE18=Big Apple Blues
TTITLE19=Springtime Blues
TTITLE20=My Baby Made A Change
TTITLE21=Shotgun Blues
TTITLE22=Coal An Iceman Blues
TTITLE23=Drink On, Little Girl
TTITLE24=Mattie Mae Blues
TTITLE25=I'm Gonna Catch You Soon
EXTD=
EXTT0=
EXTT1=
EXTT2=
EXTT3=
EXTT4=
EXTT5=
EXTT6=
EXTT7=
EXTT8=
EXTT9=
EXTT10=
EXTT11=
EXTT12=
EXTT13=
EXTT14=
EXTT15=
EXTT16=
EXTT17=
EXTT18=
EXTT19=
EXTT20=
EXTT21=
EXTT22=
EXTT23=
EXTT24=
EXTT25=
PLAYORDER=
